<?xml version="1.0" encoding="UTF-8"?>
<svg version="1.1" xmlns="http://www.w3.org/2000/svg" width="225" height="225" viewBox="0 0 512 512">
<path d="M0 0 C10.24816326 6.36401975 15.88111199 14.26833596 19.6796875 25.6640625 C19.74938802 28.05897236 19.76416753 30.45573941 19.7421875 32.8515625 C19.73316406 34.12386719 19.72414063 35.39617188 19.71484375 36.70703125 C19.69744141 38.17076172 19.69744141 38.17076172 19.6796875 39.6640625 C21.46246094 39.64049683 21.46246094 39.64049683 23.28125 39.61645508 C27.76913441 39.56139305 32.25699024 39.52744045 36.74511719 39.49926758 C38.67290294 39.4843521 40.60065583 39.46401245 42.52832031 39.43774414 C72.75803546 39.03667352 72.75803546 39.03667352 86.0546875 46.2890625 C86.71331787 46.63388672 87.37194824 46.97871094 88.05053711 47.33398438 C94.05844104 50.61436912 98.94909333 54.72204512 103.6796875 59.6640625 C104.29972656 60.25316406 104.91976563 60.84226562 105.55859375 61.44921875 C109.69677045 65.66145678 112.34198575 70.44224125 114.9921875 75.6640625 C115.33008301 76.32865479 115.66797852 76.99324707 116.01611328 77.67797852 C122.25841331 90.53395593 121.84102457 104.34457839 121.84765625 118.3359375 C121.85087817 119.94720488 121.85424291 121.55847197 121.85774231 123.16973877 C121.86370068 126.53504107 121.86558563 129.90031781 121.86499023 133.265625 C121.86488884 137.53953184 121.87853285 141.81327173 121.89576244 146.08713913 C121.90698021 149.41266607 121.90890646 152.7381539 121.90838051 156.06369781 C121.90954627 157.63746973 121.91388722 159.21124314 121.92171288 160.78499603 C122.02362394 183.39551754 118.06728264 202.56396004 102.3046875 219.5390625 C93.14869781 228.10023151 81.63346664 233.43066322 69.6796875 236.6640625 C70.38544922 237.42589844 70.38544922 237.42589844 71.10546875 238.203125 C74.69703155 242.17392114 77.58193 245.72816249 79.6796875 250.6640625 C80.17597656 250.19355469 80.67226563 249.72304688 81.18359375 249.23828125 C90.08721119 241.07803984 98.02286528 239.4808381 109.8671875 239.4140625 C111.21006836 239.383125 111.21006836 239.383125 112.58007812 239.3515625 C123.67119642 239.28749828 132.09547488 242.33657505 140.3046875 249.8515625 C147.46043221 257.21311403 148.82728758 266.05594824 148.8828125 275.96484375 C148.88851257 276.76004929 148.89421265 277.55525482 148.90008545 278.3745575 C148.90950442 280.05299563 148.91605705 281.731452 148.91992188 283.40991211 C148.92961631 285.95785305 148.96066385 288.50498278 148.9921875 291.05273438 C148.99871985 292.69009942 149.00396941 294.32747018 149.0078125 295.96484375 C149.0201593 296.71719803 149.0325061 297.46955231 149.04522705 298.2447052 C149.01817643 304.77075917 147.6426756 310.19630603 143.4921875 315.4140625 C136.41020294 321.07965015 132.40613371 321.6640625 122.6796875 321.6640625 C123.0096875 336.8440625 123.3396875 352.0240625 123.6796875 367.6640625 C126.9796875 369.3140625 130.2796875 370.9640625 133.6796875 372.6640625 C141.21163873 378.97760986 146.59791192 386.91074668 148.6796875 396.6640625 C148.8100569 399.43005158 148.89141889 402.17048696 148.91796875 404.9375 C148.9260405 405.73886383 148.93411224 406.54022766 148.94242859 407.36587524 C148.95623344 409.05867369 148.96697163 410.75149955 148.97485352 412.44433594 C148.98638614 414.17065621 149.00685832 415.89694047 149.03637695 417.62304688 C149.07912528 420.12394314 149.09523033 422.62378342 149.10546875 425.125 C149.12297684 425.8908139 149.14048492 426.65662781 149.15852356 427.44564819 C149.13767024 432.63055032 148.1012964 435.55097998 144.6796875 439.6640625 C140.3026381 442.58209543 136.89504979 443.30454559 131.6796875 442.6640625 C127.67468859 441.20244434 125.3263378 439.74583257 123.10864258 436.03588867 C121.48286826 432.19963903 121.28204549 429.40888799 121.23828125 425.25390625 C121.21846947 424.21901817 121.21846947 424.21901817 121.19825745 423.16322327 C121.15764802 420.97596108 121.13577312 418.78911429 121.1171875 416.6015625 C121.09331205 414.4105675 121.06507625 412.21995848 121.02540588 410.02919006 C120.99011048 408.04427679 120.97010112 406.05910907 120.95092773 404.07397461 C120.68947115 400.78705825 120.23811627 398.55535363 118.6796875 395.6640625 C114.15046111 393.34678388 110.5475049 393.33647594 105.6796875 394.6640625 C103.09670969 396.85397847 101.19552906 398.63237938 99.6796875 401.6640625 C99.57217665 403.9904418 99.52409206 406.31966276 99.50390625 408.6484375 C99.48069723 410.07293127 99.45657946 411.49741047 99.43164062 412.921875 C99.39661514 415.16448564 99.36723254 417.40656397 99.35375977 419.64941406 C99.33819914 421.81641122 99.29793344 423.9818553 99.25390625 426.1484375 C99.23932373 427.44491211 99.22474121 428.74138672 99.2097168 430.07714844 C98.59340881 434.2479439 97.31208255 436.40728077 94.6796875 439.6640625 C90.3141295 442.5744345 86.88468671 443.3146874 81.6796875 442.6640625 C76.59324949 439.92521127 73.50964723 437.1539417 71.6796875 431.6640625 C71.59474022 429.00512143 71.56373954 426.37320873 71.58203125 423.71484375 C71.58415367 422.55591866 71.58415367 422.55591866 71.58631897 421.37358093 C71.59191284 418.90786861 71.60446417 416.44224735 71.6171875 413.9765625 C71.62220329 412.30403777 71.62676606 410.63151162 71.63085938 408.95898438 C71.64188026 404.86064204 71.65914066 400.76236771 71.6796875 396.6640625 C71.21135498 397.20530762 70.74302246 397.74655273 70.26049805 398.30419922 C69.63957275 399.01850098 69.01864746 399.73280273 68.37890625 400.46875 C67.76619873 401.17499512 67.15349121 401.88124023 66.5222168 402.60888672 C59.28530263 410.68101385 48.68835086 417.61678803 37.6796875 418.6640625 C34.92065573 418.70707559 32.17241806 418.72298027 29.4140625 418.703125 C28.29813721 418.69889526 28.29813721 418.69889526 27.15966797 418.69458008 C25.3329942 418.68724993 23.5063367 418.6760414 21.6796875 418.6640625 C21.68968025 419.52064453 21.68968025 419.52064453 21.69987488 420.39453125 C21.7665008 426.36468854 21.81160074 432.33473933 21.84448242 438.30517578 C21.85952262 440.53015435 21.87995996 442.75510351 21.90600586 444.97998047 C21.94259885 448.18724856 21.959462 451.39412295 21.97265625 454.6015625 C21.98814011 455.58833984 22.00362396 456.57511719 22.01957703 457.59179688 C22.02134967 464.94834384 20.98708174 471.63200727 15.9921875 477.4140625 C15.55519531 477.94515625 15.11820313 478.47625 14.66796875 479.0234375 C8.36317771 484.22581911 2.33709526 485.26588926 -5.6640625 485.1953125 C-6.63259155 485.1991394 -7.60112061 485.20296631 -8.59899902 485.20690918 C-10.63615973 485.20961762 -12.67335586 485.20233167 -14.71044922 485.18554688 C-17.81166827 485.16412222 -20.91057093 485.18538534 -24.01171875 485.2109375 C-26.00000506 485.20829403 -27.98828995 485.20316867 -29.9765625 485.1953125 C-30.89449585 485.20340942 -31.8124292 485.21150635 -32.75817871 485.21984863 C-39.68541142 485.11997191 -44.96426855 483.49263392 -50.30859375 478.98828125 C-50.74558594 478.44816406 -51.18257812 477.90804688 -51.6328125 477.3515625 C-52.08269531 476.81917969 -52.53257812 476.28679687 -52.99609375 475.73828125 C-57.34055249 468.93324412 -57.73436856 463.40871423 -57.61328125 455.48046875 C-57.60903641 454.42496323 -57.60479156 453.3694577 -57.60041809 452.28196716 C-57.58370299 448.92989979 -57.54606338 445.5784464 -57.5078125 442.2265625 C-57.49275643 439.94597226 -57.47906964 437.66537254 -57.46679688 435.38476562 C-57.433823 429.81099048 -57.38369518 424.23757037 -57.3203125 418.6640625 C-58.39627686 418.68218994 -59.47224121 418.70031738 -60.58081055 418.71899414 C-62.01871318 418.73366063 -63.45662043 418.74787824 -64.89453125 418.76171875 C-65.60057495 418.77481079 -66.30661865 418.78790283 -67.03405762 418.8013916 C-81.06634151 418.90234328 -92.60619179 412.50445379 -102.4453125 402.8515625 C-106.1324672 399.03975311 -106.1324672 399.03975311 -107.3203125 396.6640625 C-107.30460205 397.65736572 -107.2888916 398.65066895 -107.27270508 399.67407227 C-107.21811051 403.38460068 -107.18385594 407.09509408 -107.15551758 410.8059082 C-107.14049784 412.40720606 -107.12007587 414.00846325 -107.09399414 415.60961914 C-107.05730812 417.92083821 -107.04051815 420.23151006 -107.02734375 422.54296875 C-107.01185989 423.25054825 -106.99637604 423.95812775 -106.98042297 424.68714905 C-106.97871095 429.82624048 -107.98062332 433.188211 -110.3203125 437.6640625 C-113.69470032 440.79154389 -115.95892568 442.55934044 -120.5703125 442.9140625 C-124.72420381 442.63713641 -126.86770381 441.96580162 -130.3203125 439.6640625 C-133.90938455 435.19519173 -134.8156349 432.20151603 -134.82421875 426.5078125 C-134.83363998 425.84245483 -134.84306122 425.17709717 -134.85276794 424.49157715 C-134.88123821 422.38208686 -134.88450332 420.27372853 -134.8828125 418.1640625 C-134.88643541 416.05456274 -134.89612119 413.94587899 -134.92356873 411.83654785 C-134.94791156 409.92306526 -134.9502871 408.00934021 -134.95141602 406.09570312 C-135.46528892 401.31542681 -136.89184831 397.92927364 -140.5078125 394.7265625 C-144.35543482 393.27301629 -147.40866706 393.4365587 -151.3203125 394.6640625 C-153.70343953 396.55834296 -154.9703684 397.96417429 -156.3203125 400.6640625 C-156.43965754 402.91720813 -156.49955203 405.173606 -156.53125 407.4296875 C-156.55933332 408.80860532 -156.58799787 410.1875114 -156.6171875 411.56640625 C-156.65832645 413.73648566 -156.69521846 415.90634944 -156.72167969 418.07666016 C-156.74945852 420.17396215 -156.79534042 422.27027329 -156.84375 424.3671875 C-156.86356934 425.62176758 -156.88338867 426.87634766 -156.90380859 428.16894531 C-157.58670188 433.89948476 -159.92926513 437.95911628 -164.3203125 441.6640625 C-169.00965787 443.22717762 -172.83786775 443.18727829 -177.5078125 441.5390625 C-180.94829266 439.24540906 -182.3365447 437.29653743 -184.3203125 433.6640625 C-184.70473013 430.76515466 -184.88301491 428.26058823 -184.8515625 425.37109375 C-184.8553894 424.58441818 -184.85921631 423.79774261 -184.86315918 422.98722839 C-184.86587098 421.32732866 -184.85856108 419.66738565 -184.84179688 418.00756836 C-184.82051814 415.50078858 -184.84154616 412.9969216 -184.8671875 410.49023438 C-184.89177961 396.57057785 -182.45189029 385.89500784 -172.40234375 375.72265625 C-168.03383746 371.67523939 -165.14089502 370.15859787 -159.3203125 367.6640625 C-158.9903125 352.4840625 -158.6603125 337.3040625 -158.3203125 321.6640625 C-161.6203125 321.6640625 -164.9203125 321.6640625 -168.3203125 321.6640625 C-174.98363139 319.58860252 -179.13139041 316.16149917 -182.43164062 310.04614258 C-184.61517616 305.55428163 -184.9029842 301.67460452 -184.8515625 296.73828125 C-184.8553894 295.91004349 -184.85921631 295.08180573 -184.86315918 294.22846985 C-184.86586487 292.48636654 -184.85859837 290.74422166 -184.84179688 289.00219727 C-184.82044863 286.36835718 -184.84160035 283.73726987 -184.8671875 281.10351562 C-184.88630283 269.35454138 -184.03169837 257.53100883 -175.3203125 248.6640625 C-166.57780144 241.32659786 -157.03782205 239.13993756 -145.8203125 239.2890625 C-144.94761719 239.27746094 -144.07492188 239.26585937 -143.17578125 239.25390625 C-134.09710153 239.29425594 -126.43824921 241.18721456 -119.1953125 246.8515625 C-118.26460938 247.56699219 -117.33390625 248.28242188 -116.375 249.01953125 C-115.69695312 249.56222656 -115.01890625 250.10492188 -114.3203125 250.6640625 C-114.06507813 249.76429688 -113.80984375 248.86453125 -113.546875 247.9375 C-112.31202312 244.64193989 -111.0689841 242.83856162 -108.6953125 240.2890625 C-108.06367188 239.60070312 -107.43203125 238.91234375 -106.78125 238.203125 C-106.29914063 237.69523438 -105.81703125 237.18734375 -105.3203125 236.6640625 C-106.07054687 236.43332031 -106.82078125 236.20257813 -107.59375 235.96484375 C-124.94645517 230.43558127 -140.4542561 221.0614566 -149.28393555 204.4777832 C-156.73540094 189.64870835 -157.48539223 175.77596078 -157.5234375 159.50390625 C-157.52626488 158.682623 -157.52909225 157.86133976 -157.53200531 157.01516914 C-157.54693174 152.6654644 -157.55620151 148.31579224 -157.56054688 143.96606445 C-157.56601044 139.52074599 -157.59001256 135.07573705 -157.61851883 130.6305151 C-157.6373353 127.17022386 -157.64236087 123.71000424 -157.64388275 120.24966621 C-157.64686904 118.61334105 -157.65475729 116.97701587 -157.66806793 115.34074211 C-157.7702544 101.80952853 -157.32631003 87.446445 -150.6953125 75.2890625 C-150.35048828 74.63043213 -150.00566406 73.97180176 -149.65039062 73.29321289 C-146.37000588 67.28530896 -142.26232988 62.39465667 -137.3203125 57.6640625 C-136.73121094 57.04402344 -136.14210937 56.42398438 -135.53515625 55.78515625 C-131.46807545 51.78958456 -126.82637285 49.05865923 -121.8203125 46.4140625 C-121.22275146 46.0845459 -120.62519043 45.7550293 -120.00952148 45.41552734 C-106.36482837 38.58881588 -90.64737754 39.26921832 -75.8203125 39.4765625 C-73.91797949 39.49165523 -72.01563473 39.50533542 -70.11328125 39.51757812 C-65.51532734 39.55017739 -60.91795505 39.60169882 -56.3203125 39.6640625 C-56.34279053 38.72594727 -56.36526855 37.78783203 -56.38842773 36.82128906 C-56.4146521 34.95682129 -56.4146521 34.95682129 -56.44140625 33.0546875 C-56.46388428 31.82782227 -56.4863623 30.60095703 -56.50952148 29.33691406 C-56.02698515 19.97010549 -51.29432423 12.50195962 -44.93359375 5.86328125 C-32.70510451 -4.42765962 -14.45118481 -7.16554593 0 0 Z M81.6796875 318.6640625 C81.66938004 319.24907028 81.65907257 319.83407806 81.64845276 320.43681335 C81.53934622 326.58630237 81.42484844 332.73567505 81.30737305 338.88500977 C81.26435415 341.17274515 81.22265964 343.46050588 81.18237305 345.74829102 C80.75101423 370.14402833 80.75101423 370.14402833 79.6796875 380.6640625 C80.2984375 379.9628125 80.9171875 379.2615625 81.5546875 378.5390625 C84.73433589 375.33200335 88.48345814 373.23757455 92.375 370.99609375 C94.18288119 369.95119971 95.94226807 368.82234212 97.6796875 367.6640625 C98.11654566 365.60987355 98.11654566 365.60987355 98.02026367 363.21435547 C98.02003708 362.29355194 98.01981049 361.37274841 98.01957703 360.42404175 C98.00409317 359.42817047 97.98860931 358.43229919 97.97265625 357.40625 C97.96841141 356.38806183 97.96416656 355.36987366 97.95979309 354.3208313 C97.94296329 351.05997577 97.90530296 347.79973209 97.8671875 344.5390625 C97.85214624 342.33204016 97.83845687 340.12500816 97.82617188 337.91796875 C97.7930458 332.49979027 97.74280403 327.08197008 97.6796875 321.6640625 C96.77605469 321.53128906 95.87242187 321.39851563 94.94140625 321.26171875 C93.76191406 321.08511719 92.58242188 320.90851563 91.3671875 320.7265625 C90.19542969 320.55253906 89.02367187 320.37851562 87.81640625 320.19921875 C84.6796875 319.6640625 84.6796875 319.6640625 81.6796875 318.6640625 Z M-120.2578125 319.6015625 C-123.15235229 320.60579059 -125.48086784 320.95717513 -128.51171875 321.23046875 C-129.41220947 321.31369385 -130.3127002 321.39691895 -131.24047852 321.48266602 C-132.26999634 321.57245728 -132.26999634 321.57245728 -133.3203125 321.6640625 C-133.57435172 328.10444633 -133.7491665 334.54353628 -133.86962891 340.98779297 C-133.91984962 343.17838813 -133.98804446 345.36864917 -134.07470703 347.55810547 C-134.19637484 350.7114487 -134.25278206 353.8603594 -134.296875 357.015625 C-134.34848785 357.99085114 -134.40010071 358.96607727 -134.45327759 359.97085571 C-134.45564465 362.85560726 -134.34868837 364.96372902 -133.3203125 367.6640625 C-130.26913427 370.33123636 -126.94496939 371.91098858 -123.3203125 373.6640625 C-120.4290169 375.76303434 -117.84685661 378.13751839 -115.3203125 380.6640625 C-115.38882919 379.93830017 -115.45734589 379.21253784 -115.52793884 378.46478271 C-116.18262145 371.15447175 -116.51787321 363.89167202 -116.63671875 356.5546875 C-116.65749985 355.46186462 -116.67828094 354.36904175 -116.69969177 353.24310303 C-116.764344 349.80014472 -116.82367418 346.35711947 -116.8828125 342.9140625 C-116.92607821 340.5598893 -116.96969486 338.20572252 -117.01367188 335.8515625 C-117.119937 330.1224637 -117.22184934 324.39330042 -117.3203125 318.6640625 C-118.52901878 318.59146901 -118.52901878 318.59146901 -120.2578125 319.6015625 Z " fill="#3863CC" transform="translate(274.3203125,15.3359375)"/>
<path d="M0 0 C1.02131784 -0.00467997 1.02131784 -0.00467997 2.06326836 -0.00945449 C4.32613856 -0.01737947 6.58873647 -0.01113248 8.85160828 -0.00482178 C10.48171647 -0.00753416 12.11182344 -0.01109649 13.7419281 -0.01544189 C18.15736417 -0.02454086 22.57270651 -0.02103135 26.98814416 -0.01468372 C31.61859397 -0.00960824 36.24903594 -0.01431972 40.87948608 -0.01745605 C48.65780573 -0.02109228 56.43608737 -0.01630675 64.21440125 -0.0067749 C73.18993569 0.0040975 82.16537918 0.00059151 91.1409114 -0.01042771 C98.86089805 -0.0195241 106.58085743 -0.02077404 114.30084771 -0.01555037 C118.90540727 -0.01244211 123.5099242 -0.01198954 128.11448097 -0.01862335 C132.44752347 -0.02443003 136.7804496 -0.02033949 141.11347961 -0.00883484 C142.69765213 -0.00620545 144.28183455 -0.00692368 145.86600304 -0.01136017 C164.583273 -0.05891716 179.280624 3.29703791 193.19413757 16.43365479 C203.44202302 26.97532447 209.2236826 40.08464964 209.14433289 54.82208252 C209.14958984 56.04573013 209.14958984 56.04573013 209.154953 57.2940979 C209.16369165 59.9670078 209.1579486 62.63964885 209.15116882 65.31256104 C209.15251786 67.18528799 209.15446039 69.0580146 209.15696716 70.93074036 C209.15990789 74.84686635 209.15565516 78.7629008 209.14628601 82.67901611 C209.13490006 87.67988861 209.14145224 92.68054619 209.15343094 97.68141079 C209.16068472 101.54632666 209.15834536 105.41119224 209.15317535 109.2761097 C209.15184817 111.11916187 209.15345368 112.96221872 209.15813446 114.80526543 C209.16325691 117.38911776 209.15540957 119.97263026 209.14433289 122.55645752 C209.14838135 123.30634445 209.15242981 124.05623138 209.15660095 124.82884216 C209.03412499 140.3784777 202.30673699 153.71121566 192.15507507 165.21490479 C187.9923444 169.2765537 183.13857757 171.92180216 178.01054382 174.56646729 C177.36278992 174.90444336 176.71503601 175.24241943 176.0476532 175.59063721 C165.77533704 180.6260613 155.09942483 180.54893063 143.8860321 180.52862549 C142.2882819 180.53298015 140.69053377 180.5381658 139.0927887 180.54411316 C134.77863934 180.55743326 130.46457797 180.55808966 126.15041208 180.55554986 C122.53736707 180.55447539 118.9243395 180.55937564 115.31129825 180.56415528 C106.78150859 180.5752263 98.25176297 180.57570144 89.7219696 180.56964111 C80.94803404 180.5636028 72.1742589 180.57591426 63.40035069 180.59721118 C55.84332582 180.61487395 48.28635179 180.62082119 40.72930706 180.61757344 C36.22642134 180.61576789 31.72365009 180.61832359 27.22078323 180.63228798 C22.98368443 180.64493811 18.74683426 180.64285491 14.50973892 180.62987709 C12.96348992 180.62752732 11.41722302 180.63018794 9.87099457 180.63850021 C-8.36055503 180.72936879 -23.46449975 176.55544478 -36.89961243 163.62115479 C-47.56407871 152.22315379 -52.25233294 138.55214899 -52.27558899 123.05230713 C-52.28055389 122.25140656 -52.2855188 121.45050598 -52.29063416 120.62533569 C-52.30517903 117.98851647 -52.31204608 115.35175746 -52.31758118 112.71490479 C-52.32040855 111.80864979 -52.32323593 110.90239479 -52.32614899 109.96867752 C-52.34111314 105.1697282 -52.35035923 100.37080871 -52.35469055 95.57183838 C-52.36016107 90.64290083 -52.38416706 85.71424148 -52.41266251 80.78539085 C-52.43139649 76.97096999 -52.43650025 73.1566146 -52.43802643 69.34215164 C-52.44103088 67.52668365 -52.44898367 65.7112162 -52.46221161 63.89579391 C-52.58855495 45.21836138 -49.77068984 30.55867671 -36.46211243 16.53912354 C-26.44321085 6.78694812 -14.27569197 0.00888114 0 0 Z " fill="#6ADCDC" transform="translate(178.1144561767578,63.74603271484375)"/>
<path d="M0 0 C1.37395921 -0.00734829 2.74791227 -0.01593672 4.12185669 -0.02566528 C7.83899227 -0.04781275 11.55590573 -0.05081531 15.27309823 -0.04891777 C18.38415768 -0.04879773 21.49517064 -0.05737567 24.60621709 -0.06569529 C31.95121428 -0.08490582 39.29609785 -0.08782212 46.64111328 -0.08105469 C54.19899164 -0.07441876 61.75638136 -0.09726524 69.31416065 -0.13436842 C75.81974055 -0.16513817 82.32516387 -0.17641751 88.83081502 -0.1725316 C92.7089217 -0.17047122 96.58664817 -0.17583211 100.46468544 -0.20042419 C104.11506122 -0.22280927 107.76464711 -0.22071758 111.41502762 -0.20049667 C113.37876926 -0.19550163 115.34252643 -0.21502112 117.3061676 -0.23550415 C126.0395034 -0.15324527 133.01731632 1.33084164 139.56335926 7.40970612 C146.61903267 14.82084022 147.86775691 21.57361677 147.80883789 31.48901367 C147.81672333 33.12949425 147.81672333 33.12949425 147.82476807 34.80311584 C147.83794073 38.40860398 147.8292362 42.01364819 147.8190918 45.61914062 C147.82111403 48.13629745 147.82402672 50.6534537 147.82778931 53.17060852 C147.83220959 58.44540902 147.82608209 63.72009514 147.81176758 68.99487305 C147.79548496 75.06436169 147.80070081 81.13354724 147.81724679 87.20302838 C147.83259309 93.0704589 147.83085031 98.93777579 147.82210159 104.80521584 C147.82010985 107.2877386 147.82252255 109.77026917 147.82954025 112.25278282 C147.83722451 115.73667732 147.82545093 119.22000475 147.80883789 122.70385742 C147.81491058 123.71570099 147.82098328 124.72754456 147.82723999 125.77005005 C147.70995957 139.15684183 143.97606931 151.58680451 134.9206543 161.66992188 C125.03398332 170.92796059 112.26483113 174.72901995 99.05419922 174.69458008 C97.52594261 174.70224648 97.52594261 174.70224648 95.96681213 174.71006775 C92.61152203 174.72392411 89.2564383 174.72300972 85.90112305 174.72070312 C83.55853703 174.72459261 81.21595172 174.72892781 78.87336731 174.73368835 C73.96682447 174.74114236 69.0603536 174.74086548 64.15380859 174.7355957 C57.88286892 174.72980649 51.61222513 174.7467231 45.34133434 174.76994038 C40.5035888 174.78471219 35.6659139 174.78554464 30.8281498 174.78243065 C28.51701586 174.78294226 26.20587781 174.78814986 23.89476585 174.79824257 C20.65474926 174.81065442 17.41530127 174.80378622 14.17529297 174.79223633 C13.23106476 174.79988007 12.28683655 174.8075238 11.31399536 174.81539917 C-1.5407359 174.71471352 -12.13541688 169.81620039 -21.4543457 160.98242188 C-30.59170252 151.14722397 -34.19540938 139.76691557 -34.11279297 126.49780273 C-34.12140854 125.36133804 -34.13002411 124.22487335 -34.13890076 123.05397034 C-34.16143881 119.33066454 -34.15484484 115.6081187 -34.14575195 111.88476562 C-34.15099212 109.27885212 -34.15727004 106.67294051 -34.16453552 104.06703186 C-34.17634028 98.61940089 -34.1707428 93.17198323 -34.15576172 87.72436523 C-34.13882926 81.45010645 -34.15470594 75.17654288 -34.1869846 68.9023599 C-34.21700648 62.83410447 -34.21884424 56.76616477 -34.20948601 50.69784737 C-34.20866834 48.12993019 -34.21549627 45.56199834 -34.23025703 42.99412346 C-34.24775608 39.39978781 -34.23311412 35.80692405 -34.21044922 32.21264648 C-34.22214142 31.16249359 -34.23383362 30.1123407 -34.24588013 29.03036499 C-34.14285349 20.96407214 -32.15869839 14.28976076 -26.58962345 8.26872158 C-18.38159777 0.49162144 -10.93542879 -0.02508452 0 0 Z " fill="#DFEAFB" transform="translate(199.579345703125,251.580078125)"/>
<path d="M0 0 C1.02131784 -0.00467997 1.02131784 -0.00467997 2.06326836 -0.00945449 C4.32613856 -0.01737947 6.58873647 -0.01113248 8.85160828 -0.00482178 C10.48171647 -0.00753416 12.11182344 -0.01109649 13.7419281 -0.01544189 C18.15736417 -0.02454086 22.57270651 -0.02103135 26.98814416 -0.01468372 C31.61859397 -0.00960824 36.24903594 -0.01431972 40.87948608 -0.01745605 C48.65780573 -0.02109228 56.43608737 -0.01630675 64.21440125 -0.0067749 C73.18993569 0.0040975 82.16537918 0.00059151 91.1409114 -0.01042771 C98.86089805 -0.0195241 106.58085743 -0.02077404 114.30084771 -0.01555037 C118.90540727 -0.01244211 123.5099242 -0.01198954 128.11448097 -0.01862335 C132.44752347 -0.02443003 136.7804496 -0.02033949 141.11347961 -0.00883484 C142.69765213 -0.00620545 144.28183455 -0.00692368 145.86600304 -0.01136017 C164.583273 -0.05891716 179.280624 3.29703791 193.19413757 16.43365479 C203.44202302 26.97532447 209.2236826 40.08464964 209.14433289 54.82208252 C209.14958984 56.04573013 209.14958984 56.04573013 209.154953 57.2940979 C209.16369165 59.9670078 209.1579486 62.63964885 209.15116882 65.31256104 C209.15251786 67.18528799 209.15446039 69.0580146 209.15696716 70.93074036 C209.15990789 74.84686635 209.15565516 78.7629008 209.14628601 82.67901611 C209.13490006 87.67988861 209.14145224 92.68054619 209.15343094 97.68141079 C209.16068472 101.54632666 209.15834536 105.41119224 209.15317535 109.2761097 C209.15184817 111.11916187 209.15345368 112.96221872 209.15813446 114.80526543 C209.16325691 117.38911776 209.15540957 119.97263026 209.14433289 122.55645752 C209.14838135 123.30634445 209.15242981 124.05623138 209.15660095 124.82884216 C209.03412499 140.3784777 202.30673699 153.71121566 192.15507507 165.21490479 C187.9923444 169.2765537 183.13857757 171.92180216 178.01054382 174.56646729 C177.36278992 174.90444336 176.71503601 175.24241943 176.0476532 175.59063721 C165.77533704 180.6260613 155.09942483 180.54893063 143.8860321 180.52862549 C142.2882819 180.53298015 140.69053377 180.5381658 139.0927887 180.54411316 C134.77863934 180.55743326 130.46457797 180.55808966 126.15041208 180.55554986 C122.53736707 180.55447539 118.9243395 180.55937564 115.31129825 180.56415528 C106.78150859 180.5752263 98.25176297 180.57570144 89.7219696 180.56964111 C80.94803404 180.5636028 72.1742589 180.57591426 63.40035069 180.59721118 C55.84332582 180.61487395 48.28635179 180.62082119 40.72930706 180.61757344 C36.22642134 180.61576789 31.72365009 180.61832359 27.22078323 180.63228798 C22.98368443 180.64493811 18.74683426 180.64285491 14.50973892 180.62987709 C12.96348992 180.62752732 11.41722302 180.63018794 9.87099457 180.63850021 C-8.36055503 180.72936879 -23.46449975 176.55544478 -36.89961243 163.62115479 C-47.56407871 152.22315379 -52.25233294 138.55214899 -52.27558899 123.05230713 C-52.28055389 122.25140656 -52.2855188 121.45050598 -52.29063416 120.62533569 C-52.30517903 117.98851647 -52.31204608 115.35175746 -52.31758118 112.71490479 C-52.32040855 111.80864979 -52.32323593 110.90239479 -52.32614899 109.96867752 C-52.34111314 105.1697282 -52.35035923 100.37080871 -52.35469055 95.57183838 C-52.36016107 90.64290083 -52.38416706 85.71424148 -52.41266251 80.78539085 C-52.43139649 76.97096999 -52.43650025 73.1566146 -52.43802643 69.34215164 C-52.44103088 67.52668365 -52.44898367 65.7112162 -52.46221161 63.89579391 C-52.58855495 45.21836138 -49.77068984 30.55867671 -36.46211243 16.53912354 C-26.44321085 6.78694812 -14.27569197 0.00888114 0 0 Z M-24.11445618 28.25396729 C-33.34639894 39.09496326 -33.5901541 51.24825647 -33.58320618 64.83599854 C-33.59032338 66.53934474 -33.5980246 68.24268859 -33.60627747 69.94602966 C-33.61966576 73.50390294 -33.62131693 77.06155452 -33.61543274 80.6194458 C-33.60954562 85.14491502 -33.64011334 89.6693081 -33.68054962 94.19456959 C-33.70659151 97.70968708 -33.70928916 101.22455118 -33.70565796 104.73975182 C-33.7073342 106.40647774 -33.71683001 108.07321731 -33.73480225 109.73984718 C-33.8587703 122.65631677 -32.54994523 134.77156245 -23.07148743 144.53912354 C-15.74378546 150.9600041 -8.93667404 154.49438716 0.95567322 154.52139282 C1.64386446 154.52592394 2.3320557 154.53045505 3.04110122 154.53512347 C5.33469567 154.547729 7.62805149 154.54614961 9.92167664 154.54449463 C11.57134301 154.55048236 13.22100659 154.55728847 14.8706665 154.56484985 C19.34399551 154.58249389 23.81724796 154.58720461 28.29060841 154.58848143 C31.08847407 154.58990469 33.88632037 154.59417764 36.68418121 154.59947586 C46.45395133 154.61797208 56.22366693 154.62614714 65.99345398 154.62457275 C75.08548338 154.62337203 84.17727514 154.64446188 93.26924443 154.67606008 C101.08687808 154.70225657 108.90443428 154.71293861 116.72211146 154.71166193 C121.38600063 154.71115322 126.04967861 154.71678611 130.71352386 154.73801804 C135.10327583 154.75745691 139.49261642 154.75748652 143.88238335 154.74298477 C145.48752637 154.74090244 147.09269552 154.74556308 148.69779396 154.75770569 C159.87014944 154.83670609 169.48848991 154.01866876 178.13554382 146.25396729 C179.2879657 145.26396729 179.2879657 145.26396729 180.46366882 144.25396729 C189.34450537 133.25318911 189.75994501 123.08978318 189.61210632 109.58599854 C189.61106668 107.69656882 189.61211151 105.80713694 189.61512756 103.91770935 C189.61494914 99.97811137 189.59429803 96.03934067 189.5579071 92.09991455 C189.51244047 87.06973473 189.51147191 82.04075556 189.5249424 77.01042652 C189.5316472 73.11626146 189.51831636 69.22236648 189.49868393 65.32825279 C189.49103006 63.47405093 189.48866253 61.61981892 189.49185562 59.76560402 C189.74409613 46.42834245 189.74409613 46.42834245 184.88554382 34.25396729 C184.4395282 33.4560376 183.99351257 32.65810791 183.53398132 31.83599854 C178.38546644 24.68177387 171.28703652 20.65919835 162.88554382 18.25396729 C159.47446519 17.95344529 159.47446519 17.95344529 155.8086853 17.99327087 C155.1197885 17.98944533 154.43089169 17.98561978 153.72111923 17.98167831 C151.42518127 17.97140413 149.12949601 17.97532976 146.83354187 17.97930908 C145.18225372 17.97495945 143.53096759 17.96977546 141.87968445 17.96382141 C137.40228272 17.95044559 132.92496548 17.94985128 128.44754767 17.95238471 C124.70518371 17.95345562 120.96283676 17.94856786 117.22047645 17.94377929 C108.387872 17.93268849 99.55531007 17.93224396 90.72270203 17.93829346 C81.62273908 17.94433046 72.52293086 17.93202821 63.42299432 17.91072339 C55.60028211 17.89308488 47.77761904 17.88710967 39.95488769 17.89036113 C35.28716024 17.89217092 30.6195431 17.88956847 25.95183372 17.87564659 C21.5596734 17.86303663 17.16775342 17.86504222 12.77559662 17.87805748 C11.16842631 17.88041612 9.56123892 17.87771425 7.95408821 17.86943436 C-4.85551224 17.80822683 -14.57327609 19.00028038 -24.11445618 28.25396729 Z " fill="#DDE8FB" transform="translate(178.1144561767578,63.74603271484375)"/>
<path d="M0 0 C0.68904566 -0.00453111 1.37809133 -0.00906223 2.08801717 -0.01373065 C4.37850594 -0.02631012 6.66875497 -0.0247585 8.95927429 -0.02310181 C10.60908816 -0.0290911 12.25889924 -0.03589757 13.90870667 -0.04345703 C18.3778444 -0.0610834 22.84690548 -0.06581099 27.31607461 -0.0670886 C30.11176803 -0.06851266 32.90744212 -0.07278708 35.70313072 -0.07808304 C45.46642158 -0.09657216 55.22965791 -0.10475505 64.9929657 -0.10317993 C74.0776315 -0.10197882 83.16205962 -0.12307805 92.2466653 -0.15466726 C100.06007286 -0.18086299 107.87340295 -0.19154585 115.68685406 -0.19026911 C120.34737494 -0.18976045 125.00768446 -0.19539049 129.66816139 -0.21662521 C134.05382286 -0.2360633 138.43907256 -0.23609424 142.82474899 -0.22159195 C144.42828031 -0.21950965 146.03183778 -0.22417007 147.63532448 -0.23631287 C160.0694785 -0.32432602 170.57541901 1.29083481 179.80961609 10.26742554 C185.72473291 17.58902569 188.10425018 24.21352333 188.13188171 33.65267944 C188.14677643 34.88329102 188.14677643 34.88329102 188.16197205 36.13876343 C188.19106854 38.84053977 188.20479639 41.54208105 188.21586609 44.24398804 C188.22434822 45.63646822 188.22434822 45.63646822 188.23300171 47.05707932 C188.26293254 51.97274657 188.28142304 56.88829731 188.29008484 61.80404663 C188.30102776 66.85440579 188.3490395 71.90367929 188.40602875 76.95369911 C188.44348842 80.86078893 188.45370367 84.76762303 188.45675659 88.67487717 C188.46276743 90.5350473 188.47868034 92.39521523 188.50512695 94.25520706 C188.67661921 107.2467384 187.54105681 117.22313676 178.37211609 127.26742554 C171.50869201 133.48078963 164.0180161 136.50952111 154.73948669 136.53485107 C153.70719983 136.54164774 153.70719983 136.54164774 152.65405869 136.54858172 C150.36046424 136.56118726 148.06710842 136.55960786 145.77348328 136.55795288 C144.1238169 136.56394061 142.47415332 136.57074672 140.82449341 136.57830811 C136.3511644 136.59595214 131.87791195 136.60066286 127.40455151 136.60193968 C124.60668585 136.60336294 121.80883954 136.60763589 119.0109787 136.61293411 C109.24120858 136.63143034 99.47149298 136.63960539 89.70170593 136.63803101 C80.60967653 136.63683028 71.51788477 136.65792013 62.42591548 136.68951833 C54.60828183 136.71571482 46.79072563 136.72639686 38.97304845 136.72512019 C34.30915928 136.72461147 29.64548131 136.73024436 24.98163605 136.75147629 C20.59188408 136.77091516 16.20254349 136.77094477 11.81277657 136.75644302 C10.20763354 136.75436069 8.60246439 136.75902133 6.99736595 136.77116394 C-6.16621109 136.86424439 -15.27173961 135.03301359 -24.99116516 125.77133179 C-28.32062122 121.98060118 -30.40059197 117.95817191 -32.19038391 113.26742554 C-32.53372772 112.38454865 -32.87707153 111.50167175 -33.2308197 110.59204102 C-34.30498653 106.87036025 -34.4859585 103.45295792 -34.48091125 99.61654663 C-34.48762848 98.87416748 -34.4943457 98.13178833 -34.50126648 97.36691284 C-34.52018345 94.92482711 -34.52416814 92.48301739 -34.52632141 90.04086304 C-34.53275615 88.32940563 -34.539485 86.6179493 -34.54649353 84.90649414 C-34.55845233 81.32056126 -34.56217604 77.73472459 -34.56098938 74.14877319 C-34.56078683 69.58290399 -34.58802857 65.01766168 -34.6225338 60.45194054 C-34.64492209 56.91543827 -34.64882321 53.37908369 -34.64776993 49.84251785 C-34.6501103 48.16101558 -34.65884434 46.47950825 -34.67443466 44.79807663 C-34.78234556 31.95216803 -33.86612377 20.49016679 -25.17866516 10.24008179 C-17.93383281 3.05218329 -10.22449424 0.02793338 0 0 Z M-21.19038391 18.26742554 C-25.39392266 24.01226183 -26.44009597 29.80273539 -26.4967804 36.82650757 C-26.50510391 37.55913315 -26.51342743 38.29175873 -26.52200317 39.04658508 C-26.54599284 41.45619107 -26.55486361 43.86552547 -26.56147766 46.27523804 C-26.57045556 47.96427485 -26.5795776 49.6533109 -26.58883667 51.34234619 C-26.60530156 54.8811943 -26.61302165 58.41994813 -26.61592102 61.95883179 C-26.6212884 66.46429442 -26.65891044 70.96885349 -26.70466518 75.47406197 C-26.73461171 78.96424479 -26.74164844 82.45421518 -26.74264717 85.94451523 C-26.74681817 87.60370883 -26.75912508 89.26290493 -26.78016472 90.92197037 C-26.90487951 101.6108117 -26.68832649 112.03287998 -19.20037842 120.52404785 C-13.32378837 126.15398619 -7.20122833 128.63879734 0.89283752 128.65510559 C1.90908838 128.6631839 1.90908838 128.6631839 2.94586957 128.6714254 C5.19735324 128.68563851 7.44824343 128.67861812 9.69975281 128.67147827 C11.32163462 128.67718539 12.94351241 128.68415098 14.56538391 128.692276 C18.95805374 128.71018608 23.35052356 128.70904294 27.7432189 128.70333362 C31.41605152 128.70023825 35.08884592 128.70633818 38.76167309 128.71237236 C47.42986756 128.7264093 56.09796346 128.72486359 64.76615906 128.71347046 C73.69521666 128.70199346 82.62397375 128.71605973 91.55299175 128.74286693 C99.2313631 128.76505243 106.90964031 128.77165479 114.58804142 128.76579052 C119.1685939 128.76242614 123.74895383 128.76480127 128.32947922 128.78204155 C132.63882678 128.79755382 136.9477307 128.79350795 141.257061 128.7747364 C142.8335919 128.77106215 144.41015597 128.77412491 145.98665619 128.78462219 C157.31546303 128.85426453 165.32364832 127.50036702 174.20414734 120.22055054 C178.85800542 114.5589227 180.40565206 108.98574791 180.32719421 101.77523804 C180.33420349 100.96762024 180.34121277 100.16000244 180.34843445 99.32791138 C180.36590908 96.68239018 180.35442979 94.03795588 180.34086609 91.39242554 C180.34356404 89.53972165 180.34744898 87.68701914 180.35246277 85.83432007 C180.35834355 81.96097261 180.34984084 78.08799541 180.33110046 74.21469116 C180.30831174 69.26506067 180.32144246 64.31629793 180.34539032 59.36669922 C180.35988682 55.54380833 180.35522469 51.7211211 180.34487915 47.89822388 C180.3422225 46.073882 180.34544403 44.24952125 180.35479736 42.42520142 C180.36502683 39.86951146 180.34937404 37.315201 180.32719421 34.75961304 C180.33529114 34.01548157 180.34338806 33.2713501 180.35173035 32.50466919 C180.24614683 25.89382145 178.00263071 20.77942411 173.66117859 15.80648804 C172.55903015 14.8590271 172.55903015 14.8590271 171.43461609 13.89242554 C170.70500671 13.24531616 169.97539734 12.59820679 169.22367859 11.93148804 C164.3408717 8.5656697 159.62378132 8.01656176 153.79522705 8.00672913 C152.7720158 8.00099081 152.7720158 8.00099081 151.72813362 7.99513656 C149.45516595 7.98486387 147.1824536 7.98878768 144.9094696 7.99276733 C143.27464058 7.9884177 141.63981359 7.98323371 140.00498962 7.97727966 C135.57317504 7.96390596 131.14144582 7.96330914 126.70961499 7.96584296 C123.00682768 7.96691371 119.30405757 7.96202669 115.60127395 7.95723754 C106.86463725 7.94614814 98.12804354 7.94570186 89.3914032 7.95175171 C80.384558 7.95779283 71.37786897 7.94547567 62.37105042 7.92418164 C54.63159585 7.90655811 46.89219095 7.90056544 39.15271705 7.90381938 C34.5331195 7.90563107 29.91363338 7.9030074 25.29405403 7.88910484 C20.94950391 7.87651878 16.60519707 7.87847794 12.26065063 7.89151573 C10.66876582 7.89387931 9.07686383 7.89115465 7.4849987 7.88289261 C5.30671475 7.87240454 3.12924404 7.88054137 0.95098877 7.89320374 C-0.26628119 7.89303599 -1.48355116 7.89286825 -2.73770809 7.89269543 C-10.48675724 8.73372488 -15.85200865 12.82035033 -21.19038391 18.26742554 Z " fill="#3A67CD" transform="translate(179.1903839111328,81.73257446289063)"/>
<path d="M0 0 C1.0725 -0.020625 2.145 -0.04125 3.25 -0.0625 C11.05081965 -0.10092768 16.79986041 0.75097163 22.9375 5.9375 C23.47761719 6.37449219 24.01773438 6.81148438 24.57421875 7.26171875 C29.54513778 13.15961569 30.8624084 19.01278916 30.81640625 26.5703125 C30.82570412 27.86375076 30.82570412 27.86375076 30.83518982 29.18331909 C30.84224971 30.99345783 30.83918146 32.80366203 30.82641602 34.61376953 C30.8124988 37.37523768 30.84673615 40.13334578 30.88476562 42.89453125 C30.88571652 44.66145916 30.88385958 46.42839128 30.87890625 48.1953125 C30.89216446 49.01419952 30.90542267 49.83308655 30.91908264 50.67678833 C30.85180248 54.83475093 30.49637894 57.46364538 27.83569336 60.75341797 C24.62062429 63.8576854 23.28236684 64.37258752 18.97143555 64.42700195 C18.08679123 64.43983719 17.20214691 64.45267242 16.29069519 64.46589661 C15.33238297 64.47328354 14.37407074 64.48067047 13.38671875 64.48828125 C11.91051811 64.50038887 11.91051811 64.50038887 10.40449524 64.51274109 C8.31891647 64.52658665 6.233315 64.53730668 4.14770508 64.54516602 C0.96066245 64.56237493 -2.22534191 64.60625667 -5.41210938 64.65039062 C-7.43749236 64.66051779 -9.46288418 64.66903382 -11.48828125 64.67578125 C-12.91664055 64.70204338 -12.91664055 64.70204338 -14.37385559 64.72883606 C-18.54764889 64.71517908 -21.0849897 64.6279067 -24.76635742 62.53588867 C-28.91331843 57.7570584 -29.07737548 53.15129636 -29.12109375 47.01953125 C-29.13012222 46.22906906 -29.1391507 45.43860687 -29.14845276 44.62419128 C-29.16292335 42.95417037 -29.17183405 41.28409317 -29.17553711 39.61401367 C-29.18738336 37.0873777 -29.2365525 34.56322695 -29.28710938 32.03710938 C-29.39266384 21.70753109 -28.86419746 13.62755315 -21.3984375 5.77734375 C-20.64820313 5.25269531 -19.89796875 4.72804688 -19.125 4.1875 C-17.99191406 3.36572266 -17.99191406 3.36572266 -16.8359375 2.52734375 C-11.61151674 -0.6718802 -5.9260913 0.02808574 0 0 Z " fill="#A3C8FE" transform="translate(383.75,263.75)"/>
<path d="M0 0 C1.02480469 -0.03673828 2.04960937 -0.07347656 3.10546875 -0.11132812 C10.85887822 -0.15566147 16.04314334 1.7308516 22.125 6.5625 C24.37890625 9.01171875 24.37890625 9.01171875 25.6875 11.25 C26.14253906 11.99636719 26.59757812 12.74273437 27.06640625 13.51171875 C29.32712129 17.89133275 29.30175078 21.92857887 29.328125 26.73828125 C29.33382507 27.54106003 29.33952515 28.34383881 29.34539795 29.17094421 C29.35484039 30.86972743 29.36137893 32.5685289 29.36523438 34.26733398 C29.37492504 36.85498376 29.40594858 39.44183396 29.4375 42.02929688 C29.44403201 43.68228697 29.44928171 45.33528272 29.453125 46.98828125 C29.4654718 47.75723221 29.4778186 48.52618317 29.49053955 49.31843567 C29.47080781 54.12222186 28.82272177 57.42642488 26.125 61.5625 C23.27535849 64.1189829 21.44964744 64.94084702 17.63525391 64.98242188 C16.75398834 64.99833374 15.87272278 65.01424561 14.9647522 65.03063965 C13.5474733 65.03094177 13.5474733 65.03094177 12.1015625 65.03125 C11.12263031 65.03886353 10.14369812 65.04647705 9.13510132 65.05432129 C7.0656794 65.06511895 4.996203 65.06797675 2.92675781 65.06347656 C-0.23205011 65.06250552 -3.38841855 65.10410483 -6.546875 65.1484375 C-8.55989078 65.15364566 -10.57291498 65.15633267 -12.5859375 65.15625 C-13.52674164 65.17264526 -14.46754578 65.18904053 -15.43685913 65.20593262 C-19.87597596 65.15939223 -22.92506312 65.00393134 -26.45556641 62.15039062 C-30.38872026 57.94338449 -30.04941653 54.64057423 -30.078125 49.1171875 C-30.08382507 48.27334503 -30.08952515 47.42950256 -30.09539795 46.56008911 C-30.104856 44.76956437 -30.11138512 42.97902215 -30.11523438 41.18847656 C-30.12488788 38.46908374 -30.15588124 35.75046366 -30.1875 33.03125 C-30.19403547 31.28906697 -30.1992838 29.54687855 -30.203125 27.8046875 C-30.2154718 26.9991745 -30.2278186 26.1936615 -30.24053955 25.36373901 C-30.215973 19.02993724 -29.03845522 13.65706252 -25.33203125 8.35546875 C-24.78933594 7.82566406 -24.24664062 7.29585938 -23.6875 6.75 C-22.89279297 5.93595703 -22.89279297 5.93595703 -22.08203125 5.10546875 C-15.18101472 0.28086427 -8.15539872 0.01527228 0 0 Z " fill="#A3C8FE" transform="translate(128.875,263.4375)"/>
<path d="M0 0 C20.46 0 40.92 0 62 0 C62.103125 7.775625 62.20625 15.55125 62.3125 23.5625 C62.35802002 26.00470947 62.40354004 28.44691895 62.45043945 30.96313477 C62.46505219 32.91421131 62.477791 34.86530318 62.48828125 36.81640625 C62.526651 38.31729797 62.526651 38.31729797 62.5657959 39.84851074 C62.56922206 45.36942922 62.18113321 49.33252579 58.5269165 53.63719177 C53.46303693 58.15682119 47.7046648 58.46707074 41.28515625 58.46875 C40.47058456 58.47636353 39.65601288 58.48397705 38.8167572 58.49182129 C37.10321093 58.50257051 35.38959942 58.50549659 33.67602539 58.50097656 C31.07260665 58.50000378 28.47213519 58.54168979 25.86914062 58.5859375 C24.19531858 58.59114538 22.5214864 58.59383268 20.84765625 58.59375 C20.0797023 58.61014526 19.31174835 58.62654053 18.52052307 58.64343262 C12.61146556 58.56888412 8.58212529 56.72365583 4 53 C0.76446762 48.7207475 -0.12871388 44.79243155 -0.11352539 39.50683594 C-0.11340454 38.61399902 -0.11328369 37.72116211 -0.11315918 36.80126953 C-0.10804321 35.87169434 -0.10292725 34.94211914 -0.09765625 33.984375 C-0.09664917 33.12344238 -0.09564209 32.26250977 -0.09460449 31.37548828 C-0.08938212 28.16697859 -0.07542085 24.95848792 -0.0625 21.75 C-0.041875 14.5725 -0.02125 7.395 0 0 Z " fill="#4570C6" transform="translate(225,434)"/>
<path d="M0 0 C6.92423677 4.73002892 10.73857879 11.1062126 13.80859375 18.78125 C13.80859375 23.07125 13.80859375 27.36125 13.80859375 31.78125 C-5.99140625 31.78125 -25.79140625 31.78125 -46.19140625 31.78125 C-46.19140625 19.63125859 -46.01312225 13.54273986 -38.328125 4.6171875 C-27.41331867 -5.66329141 -13.17921283 -7.32961569 0 0 Z " fill="#F4A5A7" transform="translate(272.19140625,24.21875)"/>
<path d="M0 0 C4.87679522 2.39239011 7.80955604 5.71568955 11 10 C12.68193729 15.04581187 12.30390796 20.3192727 12.35009766 25.60424805 C12.36659427 26.98430316 12.39380154 28.36427506 12.43212891 29.74389648 C12.6606697 38.02800335 12.80314954 44.65177385 7 51 C3.2036919 54.70371522 0.14321604 55.29656006 -5 55.5 C-10.14321604 55.29656006 -13.2036919 54.70371522 -17 51 C-22.72304882 44.69021491 -22.72124113 38.1362177 -22.54199219 29.90869141 C-22.49993276 27.8717435 -22.50095121 25.83809302 -22.5078125 23.80078125 C-22.37659483 10.58716199 -22.37659483 10.58716199 -17.24609375 5.13671875 C-16.64925781 4.65847656 -16.05242187 4.18023437 -15.4375 3.6875 C-14.83808594 3.19636719 -14.23867188 2.70523438 -13.62109375 2.19921875 C-9.46230357 -0.87728387 -4.99119996 -0.54603266 0 0 Z " fill="#4672C6" transform="translate(320,122)"/>
<path d="M0 0 C4.95170091 2.84264311 8.55208681 6.46876044 10.375 11.9375 C10.64788797 16.13617502 10.6883306 20.33490083 10.72509766 24.54174805 C10.74159427 25.92180316 10.76880154 27.30177506 10.80712891 28.68139648 C11.0356697 36.96550335 11.17814954 43.58927385 5.375 49.9375 C1.5786919 53.64121522 -1.48178396 54.23406006 -6.625 54.4375 C-11.76821604 54.23406006 -14.8286919 53.64121522 -18.625 49.9375 C-24.38059007 43.62814032 -24.40145266 36.68129885 -24.27685547 28.52880859 C-24.25003901 26.44053795 -24.27668052 24.35763831 -24.30859375 22.26953125 C-24.32826779 14.79986254 -24.02097365 8.54213685 -18.625 2.9375 C-12.76407365 -2.05098124 -7.02197131 -2.05816401 0 0 Z " fill="#4672C6" transform="translate(204.625,123.0625)"/>
<path d="M0 0 C6.64140302 5.19761975 10.72805328 11.03738274 12.875 19.25 C13.32022573 24.02054103 13.37017966 28.72421988 13.28662109 33.51147461 C13.24965528 35.70798312 13.24560585 37.90281931 13.24609375 40.09960938 C13.17117828 50.80573259 13.17117828 50.80573259 10.875 54.25 C7.875 54.5625 7.875 54.5625 4.875 54.25 C2.00675317 51.38175317 2.6202554 49.34682687 2.6015625 45.3359375 C2.5812521 43.92056532 2.56040095 42.50520081 2.5390625 41.08984375 C2.51658446 38.86500602 2.50004103 36.6404729 2.49414062 34.41552734 C2.53519303 22.75416422 2.53519303 22.75416422 -2.125 12.25 C-6.85746523 7.63888003 -11.50668499 5.95937342 -18.0625 5.875 C-24.14163947 5.99419881 -27.26778214 7.33032929 -31.5546875 11.7109375 C-36.13758939 16.81168141 -36.24412489 20.6375022 -36.37109375 27.31640625 C-36.40401161 28.70248076 -36.43722358 30.08854832 -36.47070312 31.47460938 C-36.51820883 33.64928742 -36.56270555 35.82393319 -36.60180664 37.9987793 C-36.64150062 40.10493687 -36.69302315 42.21054924 -36.74609375 44.31640625 C-36.7711499 45.57396729 -36.79620605 46.83152832 -36.82202148 48.12719727 C-37.125 51.25 -37.125 51.25 -39.125 54.25 C-42.125 54.5625 -42.125 54.5625 -45.125 54.25 C-47.97371666 51.40128334 -47.46780397 48.56872199 -47.49609375 44.75 C-47.50512222 43.99968506 -47.5141507 43.24937012 -47.52345276 42.47631836 C-47.537981 40.88252762 -47.54684838 39.2886769 -47.55053711 37.69482422 C-47.56232206 35.28636547 -47.61137748 32.88056508 -47.66210938 30.47265625 C-47.75469984 21.59758637 -47.29022572 14.82539389 -42.125 7.25 C-41.568125 6.3425 -41.01125 5.435 -40.4375 4.5 C-28.92452477 -6.70181374 -13.65056907 -7.64431868 0 0 Z " fill="#F3A4A8" transform="translate(402.125,394.75)"/>
<path d="M0 0 C6.8566389 7.24844684 10.50839824 14.37229398 10.453125 24.38671875 C10.45599518 25.53428398 10.45599518 25.53428398 10.45892334 26.70503235 C10.46027934 28.31450735 10.45662392 29.92399351 10.44824219 31.53344727 C10.43748971 34.00236326 10.44817962 36.47055896 10.4609375 38.93945312 C10.45961667 40.50520994 10.45705585 42.07096631 10.453125 43.63671875 C10.45717346 44.37629318 10.46122192 45.11586761 10.46539307 45.87785339 C10.41745283 51.08254717 10.41745283 51.08254717 8.1875 53.3125 C5.1875 53.625 5.1875 53.625 2.1875 53.3125 C-0.28224178 49.60788733 -0.06535358 47.68616115 -0.0859375 43.265625 C-0.10623838 41.8489506 -0.12708938 40.432284 -0.1484375 39.015625 C-0.17095848 36.79290187 -0.18747887 34.57048792 -0.19335938 32.34765625 C-0.20295343 30.19474961 -0.23681982 28.04321906 -0.2734375 25.890625 C-0.28165527 24.60575195 -0.28987305 23.32087891 -0.29833984 21.99707031 C-1.05682838 16.56159598 -3.43446117 11.8715167 -7.875 8.4375 C-13.39969426 4.44091266 -19.20648003 4.5757069 -25.8125 5.3125 C-31.5143427 7.44265702 -34.91040101 10.97263786 -37.8125 16.3125 C-38.99527356 19.86082067 -38.99032537 22.7914287 -39.05859375 26.53515625 C-39.09151287 27.9746159 -39.12472482 29.41406887 -39.15820312 30.85351562 C-39.20573427 33.12048036 -39.25021406 35.38741438 -39.28930664 37.65454102 C-39.32892002 39.84418809 -39.38046591 42.03330133 -39.43359375 44.22265625 C-39.4586499 45.53371338 -39.48370605 46.84477051 -39.50952148 48.19555664 C-39.8125 51.3125 -39.8125 51.3125 -41.8125 53.3125 C-44.8125 53.625 -44.8125 53.625 -47.8125 53.3125 C-51.0692728 48.4273408 -50.18437558 42.6822916 -50.18310547 36.96362305 C-50.18743733 34.78157028 -50.22363872 32.60161114 -50.26171875 30.41992188 C-50.36006805 18.50336486 -48.26181135 10.03747248 -39.90234375 1.2265625 C-28.56013836 -9.16162562 -12.52468092 -7.51480855 0 0 Z " fill="#F3A5A8" transform="translate(147.8125,395.6875)"/>
<path d="M0 0 C0.93199219 -0.00257813 1.86398437 -0.00515625 2.82421875 -0.0078125 C3.80003906 -0.00007813 4.77585937 0.00765625 5.78125 0.015625 C6.75707031 0.00789063 7.73289062 0.00015625 8.73828125 -0.0078125 C9.67027344 -0.00523437 10.60226562 -0.00265625 11.5625 0 C12.41908203 0.00225586 13.27566406 0.00451172 14.15820312 0.00683594 C16.28125 0.265625 16.28125 0.265625 18.28125 2.265625 C18.52416992 4.49633789 18.52416992 4.49633789 18.51171875 7.23828125 C18.50978516 8.21990234 18.50785156 9.20152344 18.50585938 10.21289062 C18.48749023 11.75493164 18.48749023 11.75493164 18.46875 13.328125 C18.46810547 14.36001953 18.46746094 15.39191406 18.46679688 16.45507812 C18.42140997 24.12546503 18.42140997 24.12546503 17.28125 25.265625 C13.64225825 25.51718769 9.99041327 25.45084726 6.34375 25.453125 C5.31572266 25.46537109 4.28769531 25.47761719 3.22851562 25.49023438 C1.75608398 25.49313477 1.75608398 25.49313477 0.25390625 25.49609375 C-1.10335571 25.50225708 -1.10335571 25.50225708 -2.48803711 25.50854492 C-4.71875 25.265625 -4.71875 25.265625 -6.71875 23.265625 C-6.97753906 21.14257812 -6.97753906 21.14257812 -6.984375 18.546875 C-6.98695313 17.61488281 -6.98953125 16.68289063 -6.9921875 15.72265625 C-6.98445313 14.74683594 -6.97671875 13.77101563 -6.96875 12.765625 C-6.97648437 11.78980469 -6.98421875 10.81398438 -6.9921875 9.80859375 C-6.98960937 8.87660156 -6.98703125 7.94460938 -6.984375 6.984375 C-6.98211914 6.12779297 -6.97986328 5.27121094 -6.97753906 4.38867188 C-6.43907301 -0.02878174 -3.80003343 0.01000761 0 0 Z " fill="#FEEA92" transform="translate(267.71875,269.734375)"/>
<path d="M0 0 C0.93199219 -0.00257813 1.86398437 -0.00515625 2.82421875 -0.0078125 C3.80003906 -0.00007813 4.77585937 0.00765625 5.78125 0.015625 C6.75707031 0.00789063 7.73289062 0.00015625 8.73828125 -0.0078125 C9.67027344 -0.00523437 10.60226562 -0.00265625 11.5625 0 C12.41908203 0.00225586 13.27566406 0.00451172 14.15820312 0.00683594 C16.28125 0.265625 16.28125 0.265625 18.28125 2.265625 C18.54003906 4.38867188 18.54003906 4.38867188 18.546875 6.984375 C18.55074219 8.38236328 18.55074219 8.38236328 18.5546875 9.80859375 C18.54695313 10.78441406 18.53921875 11.76023437 18.53125 12.765625 C18.53898437 13.74144531 18.54671875 14.71726562 18.5546875 15.72265625 C18.55210937 16.65464844 18.54953125 17.58664062 18.546875 18.546875 C18.54461914 19.40345703 18.54236328 20.26003906 18.54003906 21.14257812 C18.28125 23.265625 18.28125 23.265625 16.28125 25.265625 C14.15820312 25.50854492 14.15820312 25.50854492 11.5625 25.49609375 C10.63050781 25.49416016 9.69851563 25.49222656 8.73828125 25.49023438 C7.27455078 25.47186523 7.27455078 25.47186523 5.78125 25.453125 C4.80542969 25.45248047 3.82960938 25.45183594 2.82421875 25.45117188 C-4.43805804 25.40597098 -4.43805804 25.40597098 -6.71875 24.265625 C-6.77662784 20.64069166 -6.8123042 17.01587643 -6.84375 13.390625 C-6.86050781 12.35808594 -6.87726563 11.32554687 -6.89453125 10.26171875 C-6.90097656 9.27558594 -6.90742188 8.28945313 -6.9140625 7.2734375 C-6.92453613 6.36223145 -6.93500977 5.45102539 -6.94580078 4.51220703 C-6.4898606 0.00085056 -3.88388437 0.01022844 0 0 Z " fill="#F8A7A7" transform="translate(311.71875,269.734375)"/>
<path d="M0 0 C2.64 0 5.28 0 8 0 C8 14.52 8 29.04 8 44 C5.36 44 2.72 44 0 44 C0 29.48 0 14.96 0 0 Z " fill="#D8E4F9" transform="translate(381,337)"/>
<path d="M0 0 C2.64 0 5.28 0 8 0 C8 14.52 8 29.04 8 44 C5.36 44 2.72 44 0 44 C0 29.48 0 14.96 0 0 Z " fill="#D9E5FA" transform="translate(124,337)"/>
</svg>
